<!-- Created with Inkscape (http://www.inkscape.org/) -->
<svg width="800" height="800" viewBox="0 0 211.67 211.67" xmlns="http://www.w3.org/2000/svg"><path d="m105.83 78.053c-15.242 1e-6 -27.781 12.539-27.781 27.781-2e-6 15.242 12.539 27.781 27.781 27.781 15.242 1e-5 27.781-12.539 27.781-27.781 0-15.242-12.539-27.781-27.781-27.781zm0 17.008c6.0501-1e-6 10.771 4.7233 10.771 10.773 0 6.0501-4.7214 10.771-10.771 10.771-6.0501 0-10.773-4.7214-10.773-10.771 1e-6 -6.0501 4.7233-10.773 10.773-10.773zm11.394 52.166h3.514q7.2864 0 9.5085-2.2738 2.2221-2.2738 2.2221-9.5601v-12.816q0-8.0615 2.3254-11.731t8.0615-5.0643q-5.6844-1.2919-8.0615-4.9609-2.3254-3.669-2.3254-11.782v-12.816q0-7.2864-2.2221-9.5601-2.2221-2.2738-9.5085-2.2738h-3.514v-7.3897h3.2039q12.867 0 17.208 3.8241 4.3408 3.7724 4.3408 15.193v12.402q0 7.7515 2.7388 10.697 2.7905 2.9456 10.077 2.9456h3.3073v7.3897h-3.3073q-7.2864 0-10.077 2.9972-2.7388 2.9972-2.7388 10.8v12.351q0 11.42-4.3408 15.245-4.3408 3.8241-17.208 3.8241h-3.2039zm-22.789 0v7.4414h-3.3073q-12.867 0-17.26-3.8241-4.3408-3.824-4.3408-15.245v-12.351q0-7.8032-2.7905-10.8-2.7389-2.9972-9.9736-2.9972h-3.2039v-7.3897h3.2039q7.2864 0 10.025-2.9456 2.7389-2.9456 2.7389-10.697v-12.402q0-11.42 4.3408-15.193 4.3925-3.8241 17.26-3.8241h3.3073v7.3897h-3.6174q-7.2347 0-9.4568 2.2738-2.1704 2.2221-2.1704 9.5601v12.816q0 8.1132-2.3771 11.782-2.3254 3.669-8.0098 4.9609 5.7361 1.3953 8.0615 5.0643 2.3254 3.669 2.3254 11.731v12.816q0 7.3897 2.1704 9.6118 2.2221 2.2221 9.4568 2.2221zm-54.751-140.61v198.44h56.885v-13.23h-43.656v-171.98h43.656v-13.229zm75.406 0v13.229h43.656v171.98h-43.656v13.23h56.885v-198.44z" color="#000000" color-rendering="auto" dominant-baseline="auto" enable-background="accumulate" image-rendering="auto" opacity="1" shape-rendering="auto" solid-color="#000000"/><style>path{fill:#000}@media (prefers-color-scheme:dark){path{fill:#fff}}</style></svg>
  